<svg xmlns="http://www.w3.org/2000/svg" xmlns:xlink="http://www.w3.org/1999/xlink" width="640" height="360">
  <path fill="#979DA5" d="M205.6 173.2h221.6v177.1H205.6z"/>
  <path fill="#F1F1F2" d="M205.6 173.2h221.6v33.9H205.6z"/>
  <defs>
    <path id="a" d="M205.6 173.2h221.6v33.9H205.6z"/>
  </defs>
  <clipPath id="b">
    <use overflow="visible" xlink:href="#a"/>
  </clipPath>
  <path clip-path="url(#b)" fill="#686C71" d="M411.6 240.3L254.9 117.7l-30.6 24L381 264.3z"/>
  <path clip-path="url(#b)" fill="#686C71" d="M297.4 245L140.7 122.5 110 146.4 266.7 269z"/>
  <path clip-path="url(#b)" fill="#686C71" d="M529.6 239.2L372.9 116.7l-30.7 24 156.7 122.5z"/>
  <path fill="#F1F1F2" d="M198.7 140l217.1-44.6 6.8 33.2-217 44.5z"/>
  <defs>
    <path id="c" d="M199.9 117.3h221.6v33.9H199.9z" transform="rotate(-11.6 310.7 134.3)"/>
  </defs>
  <clipPath id="d">
    <use overflow="visible" xlink:href="#c"/>
  </clipPath>
  <path fill="#686C71" d="M414.1 164.3L235.9 75.7l-25.2 29.7 178.2 88.5zM303.1 191.9L125 103.3 99.8 133l178.1 88.5zM529.4 139.5L351.3 51l-25.2 29.6 178.1 88.6z" clip-path="url(#d)"/>
  <path fill="#E1E2E6" d="M410.2 238.2H221.6a3.1 3.1 0 0 1 0-6.2h188.6a3.1 3.1 0 0 1 0 6.2zm.3 44.8H222a3.1 3.1 0 0 1 0-6.2h188.6a3.1 3.1 0 0 1 0 6.2zm0 36H222a3.1 3.1 0 0 1 0-6.2h188.6a3.1 3.1 0 0 1 0 6.2z"/>
  <path fill="#E1E2E6" d="M278 281.9a3.1 3.1 0 0 1-3-3.1v-42.9a3.1 3.1 0 0 1 6.2 0v42.9a3 3 0 0 1-3.1 3zm75-.1a3.1 3.1 0 0 1-3-3.1v-42.9a3.1 3.1 0 0 1 6.2 0v42.9a3 3 0 0 1-3.1 3z"/>
  <circle cx="176.7" cy="89.8" r="9.2" fill="#EA4336"/>
  <circle cx="449.2" cy="226.7" r="9.2" fill="#EA4336"/>
  <circle cx="170.2" cy="330.8" r="9.2" fill="#4285F4"/>
  <circle cx="218.2" cy="115.9" r="9.2" fill="#4285F4"/>
  <circle cx="482.2" cy="157.7" r="9.2" fill="#34A853"/>
  <circle cx="137.8" cy="165.5" r="9.2" fill="#34A853"/>
  <circle cx="439.9" cy="288.9" r="9.2" fill="#4285F4"/>
  <path fill="none" stroke="#34A853" stroke-miterlimit="10" d="M409.6 204.7l2.6-6.9c1.4-3.6 4.8-6 8.7-6 3.7 0 7-2.1 8.5-5.5l.8-1.8a9.3 9.3 0 0 1 8.5-5.5h9"/>
  <path fill="none" stroke="#4285F4" stroke-miterlimit="10" d="M144.6 295.6l2.6-6.9c1.4-3.6 4.9-6 8.7-6 3.7 0 7-2.1 8.5-5.5l.8-1.8a9.3 9.3 0 0 1 8.5-5.5h9"/>
  <path fill="none" stroke="#34A853" stroke-miterlimit="10" d="M478.3 317.3l2.6-7c1.4-3.5 4.8-6 8.7-6 3.7 0 7-2 8.5-5.5l.8-1.8a9.3 9.3 0 0 1 8.5-5.5h9"/>
  <path fill="none" stroke="#EA4336" stroke-miterlimit="10" d="M175.7 225l-4.2-6a9.3 9.3 0 0 1-.1-10.5c2-3 2.1-7 .2-10.2l-1-1.6c-2-3.2-2-7.1 0-10.2l5.2-7.5m30.8 107.1l1.3-7.3a9.3 9.3 0 0 1 7.4-7.4 9.3 9.3 0 0 0 7.3-7l.4-2a9.3 9.3 0 0 1 7.3-7l9-1.8M466.5 84.5l-13.1 30.1"/>
  <path fill="none" stroke="#4285F4" stroke-miterlimit="10" d="M242.5 90.8l-30.1-13.1m155.1 108.8l13-30.1"/>
  <path fill="#FBBC04" d="M263.9 95.9H279V111h-15.1zm182.6 227.4l8.8-12.2 12.2 8.7-8.7 12.3zm-322.9-94.8l8.8-12.3 12.2 8.8-8.7 12.3z"/>
</svg>
